<?xml version="1.0" encoding="UTF-8"?>
<!-- Generated by Pixelmator Pro 3.8 -->
<svg width="18" height="22" viewBox="0 0 18 22" xmlns="http://www.w3.org/2000/svg">
    <g id="lockshield">
        <path id="Path" fill="#000000" stroke="none" opacity="0" d="M 1.664429 1.5947 L 16.981588 1.5947 L 16.981588 20 L 1.664429 20 Z"/>
        <path id="path1" fill="#ffffff" stroke="none" d="M 9.087174 20 C 9.2107 20 9.43529 19.955025 9.682342 19.82023 C 14.724445 17.05777 16.509869 15.800153 16.509869 12.476151 L 16.509869 5.715958 C 16.509869 4.795124 16.07201 4.514393 15.375676 4.211187 C 14.466099 3.81815 10.749149 2.504295 9.83956 2.189867 C 9.603739 2.111259 9.345457 2.055113 9.087174 2.055113 C 8.828893 2.055113 8.55938 2.133718 8.334789 2.189867 C 7.4252 2.414459 3.708212 3.82938 2.798615 4.211187 C 2.102382 4.503162 1.664429 4.795124 1.664429 5.715958 L 1.664429 12.476151 C 1.664429 15.800153 3.449929 17.046652 8.492008 19.82023 C 8.739059 19.955025 8.963649 20 9.087174 20 Z M 9.087174 18.158358 C 8.952418 18.158358 8.817662 18.124628 8.514469 17.95623 C 4.460597 15.530563 3.259032 14.811871 3.259032 12.083113 L 3.259032 6.01915 C 3.259032 5.817022 3.303942 5.727188 3.483622 5.648573 C 4.921007 5.087099 7.346597 4.312252 8.783982 3.739546 C 8.896277 3.694624 8.997341 3.683407 9.087174 3.683407 C 9.177008 3.683407 9.278072 3.694624 9.39038 3.739546 C 10.816534 4.312252 13.208432 5.15447 14.679471 5.648573 C 14.870357 5.715958 14.904086 5.817022 14.904086 6.01915 L 14.904086 12.083113 C 14.904086 14.811871 13.702535 15.530563 9.648649 17.95623 C 9.356688 18.124628 9.221931 18.158358 9.087174 18.158358 Z"/>
    </g>
</svg>
